<?xml version="1.0" encoding="UTF-8" standalone="no"?>
<svg
   xmlns:dc="http://purl.org/dc/elements/1.1/"
   xmlns:cc="http://creativecommons.org/ns#"
   xmlns:rdf="http://www.w3.org/1999/02/22-rdf-syntax-ns#"
   xmlns:svg="http://www.w3.org/2000/svg"
   xmlns="http://www.w3.org/2000/svg"
   xmlns:sodipodi="http://sodipodi.sourceforge.net/DTD/sodipodi-0.dtd"
   xmlns:inkscape="http://www.inkscape.org/namespaces/inkscape"
   width="500"
   height="304.5"
   viewBox="0 0 400 243.6"
   version="1.1"
   id="svg2"
   inkscape:version="0.47 r22583"
   sodipodi:docname="Fendi_logo.svg">
  <metadata
     id="metadata24">
    <rdf:RDF>
      <cc:Work
         rdf:about="">
        <dc:format>image/svg+xml</dc:format>
        <dc:type
           rdf:resource="http://purl.org/dc/dcmitype/StillImage" />
      </cc:Work>
    </rdf:RDF>
  </metadata>
  <defs
     id="defs22">
    <inkscape:perspective
       sodipodi:type="inkscape:persp3d"
       inkscape:vp_x="0 : 304.375 : 1"
       inkscape:vp_y="0 : 1000 : 0"
       inkscape:vp_z="1010 : 304.375 : 1"
       inkscape:persp3d-origin="505 : 202.91667 : 1"
       id="perspective26" />
  </defs>
  <sodipodi:namedview
     pagecolor="#ffffff"
     bordercolor="#666666"
     borderopacity="1"
     objecttolerance="10"
     gridtolerance="10"
     guidetolerance="10"
     inkscape:pageopacity="0"
     inkscape:pageshadow="2"
     inkscape:window-width="1280"
     inkscape:window-height="750"
     id="namedview20"
     showgrid="false"
     inkscape:zoom="1.5507187"
     inkscape:cx="338.89692"
     inkscape:cy="143.62855"
     inkscape:window-x="-8"
     inkscape:window-y="-8"
     inkscape:window-maximized="1"
     inkscape:current-layer="svg2" />
  <g
     id="#ffffffff"
     transform="translate(-12.73557,-235.78999)" />
  <g
     id="#231f20ff"
     transform="matrix(0.50659182,0,0,0.50659182,-3.8722866,-0.80272122)">
    <path
       d="m 331.02,5.96 c 26,0.11 51.99,-0.01 77.99,0.06 9.43,0.65 18.89,0.03 28.33,0.38 -0.45,8.43 -0.32,16.86 -0.32,25.3 -26.26,0 -52.52,-0.06 -78.78,0.03 -0.01,12.59 0.03,25.19 -0.01,37.79 14.74,0.01 29.48,0.07 44.21,-0.04 0.07,8.05 -0.03,16.1 0.07,24.15 -14.75,0.18 -29.51,-0.05 -44.26,0.11 0.05,31.72 -0.14,63.43 0.1,95.14 -9.23,0.2 -18.46,0.2 -27.69,0.01 0.3,-26.96 -0.25,-53.93 0.34,-80.88 0,-34.02 -0.05,-68.04 0.02,-102.05 z"
       id="path6"
       style="fill:#231f20" />
    <path
       d="m 446.7,6.03 c 9.2,-0.02 18.4,-0.1 27.6,0.04 -0.24,24.32 0.26,48.66 -0.31,72.97 0.02,28.67 0,57.33 0.01,86 -0.04,7.99 0.17,15.99 -0.35,23.97 -14.89,0.22 -29.76,-0.47 -44.64,-0.31 -20.4,0.02 -40.79,-0.04 -61.18,0.04 0.01,-8.48 0.29,-16.96 0.18,-25.44 26.22,0.03 52.44,-0.03 78.67,0.04 0.15,-12.69 0.03,-25.38 0.05,-38.06 -14.74,-0.04 -29.47,-0.05 -44.21,-0.01 -0.02,-8.06 0.03,-16.13 -0.02,-24.19 14.74,-0.25 29.49,0.08 44.24,-0.17 -0.01,-31.63 0.05,-63.26 -0.04,-94.88 z"
       id="path8"
       style="fill:#231f20" />
    <path
       d="m 12.75,268.75 c 46.49,0 92.97,0.04 139.46,-0.02 0.05,12.5 0.1,25 -0.02,37.51 -32.83,-0.01 -65.67,-0.03 -98.51,0.01 0.02,15.69 -0.02,31.39 0.02,47.08 28.75,-0.06 57.5,-0.01 86.24,-0.02 0.16,12.46 -0.03,24.92 0.1,37.38 -28.78,-0.03 -57.55,0.03 -86.32,-0.03 -0.07,29.56 -0.04,59.12 -0.02,88.68 -13.63,-0.15 -27.26,-0.15 -40.89,-0.01 -0.15,-70.19 -0.02,-140.39 -0.06,-210.58 z"
       id="path10"
       style="fill:#231f20" />
    <path
       d="m 179.33,479.34 c -0.05,-70.22 -0.06,-140.44 0.01,-210.66 48.04,0.15 96.09,0.07 144.14,0.04 0.01,12.51 -0.05,25.02 0.03,37.52 -34.69,0 -69.39,-0.06 -104.08,0.04 0.11,14.68 0.01,29.37 0.05,44.06 31.86,-0.08 63.71,-0.03 95.57,-0.03 -0.12,12.45 0.02,24.91 -0.09,37.36 -31.82,0.03 -63.65,0.05 -95.47,-0.02 -0.08,18.02 0.08,36.04 -0.08,54.05 36.26,0.12 72.52,0.02 108.79,0.05 0.09,12.5 0.09,25 0,37.51 -49.62,0.04 -99.25,-0.13 -148.87,0.08 z"
       id="path12"
       style="fill:#231f20" />
    <path
       d="m 358.97,268.68 c 14.44,0.11 28.88,0.14 43.32,0 26.05,48.93 52.09,97.86 78.19,146.76 0.09,-48.89 0.08,-97.78 0,-146.66 12.73,-0.07 25.46,0.02 38.19,-0.05 0.06,70.19 0.05,140.38 0.01,210.57 -13.62,-0.1 -27.24,-0.04 -40.85,-0.04 -26.72,-50.11 -53.5,-100.19 -80.36,-150.23 0.01,50.1 0.02,100.19 -0.01,150.29 -12.83,-0.11 -25.67,-0.16 -38.51,0.03 0.09,-70.22 0.05,-140.45 0.02,-210.67 z"
       id="path14"
       style="fill:#231f20" />
    <path
       d="m 557.77,268.72 c 29.74,0.09 59.48,0 89.22,0.05 16.31,0.26 33.01,4.86 45.58,15.63 13.17,10.32 20.86,25.88 25.67,41.57 4.06,14.29 5.54,29.19 5.79,44.01 -0.59,22.89 -3.82,46.33 -14.39,66.93 -6.62,14.27 -17.65,26.58 -31.47,34.17 -10.13,5.51 -21.7,7.83 -33.14,8.13 -29.06,0.14 -58.13,-0.11 -87.19,0.13 -0.2,-70.21 -0.06,-140.42 -0.07,-210.62 m 40.53,36.7 c -0.11,45.71 -0.06,91.42 -0.03,137.13 12.93,-0.06 25.85,0 38.78,-0.03 5.29,-0.14 10.69,-0.8 15.57,-2.94 9.45,-3.9 16.16,-12.35 20.61,-21.28 7.51,-16.28 9.15,-34.62 8.66,-52.33 -0.45,-16.97 -3.03,-35.14 -14.22,-48.62 -6.73,-8.34 -17.87,-11.11 -28.09,-11.78 -13.76,-0.25 -27.52,0.05 -41.28,-0.15 z"
       id="path16"
       style="fill:#231f20" />
    <path
       d="m 751.38,479.39 c -0.15,-70.24 -0.13,-140.48 -0.01,-210.72 13.61,0.2 27.23,0.05 40.84,0.06 0.06,70.17 0.09,140.35 -0.01,210.53 -13.61,0.06 -27.22,-0.2 -40.82,0.13 z"
       id="path18"
       style="fill:#231f20" />
  </g>
</svg>
