<?xml version="1.0" encoding="UTF-8" ?>
<!DOCTYPE svg PUBLIC "-//W3C//DTD SVG 1.1//EN" "http://www.w3.org/Graphics/SVG/1.1/DTD/svg11.dtd">
<svg width="238.5pt" height="236.25pt" viewBox="0 0 1679 1664" version="1.1" xmlns="http://www.w3.org/2000/svg">
<g id="#000000ff">
<path fill="#000000" opacity="1.00" d=" M 1234.16 27.07 C 1375.40 27.20 1516.65 27.11 1657.90 27.13 C 1657.92 58.96 1657.80 90.78 1658.04 122.60 C 1636.94 123.57 1615.81 125.33 1595.10 129.60 C 1575.11 133.77 1555.49 140.44 1537.82 150.79 C 1510.70 166.67 1488.41 191.07 1476.15 220.11 C 1310.24 610.19 1144.45 1000.31 978.72 1390.47 C 969.96 1410.63 961.84 1431.08 952.69 1451.07 C 891.21 1450.60 829.74 1450.92 768.26 1450.80 C 741.24 1396.88 714.41 1342.86 687.13 1289.07 C 655.73 1373.02 624.33 1456.97 592.95 1540.93 C 787.29 1540.93 981.63 1540.93 1175.97 1540.93 C 1201.01 1540.74 1226.11 1541.73 1251.08 1539.36 C 1271.40 1537.44 1291.67 1533.36 1310.59 1525.51 C 1344.54 1511.86 1374.97 1490.50 1401.41 1465.38 C 1430.91 1437.43 1456.06 1405.21 1478.53 1371.44 C 1511.07 1322.51 1537.48 1269.83 1561.76 1216.42 C 1595.97 1216.22 1630.17 1216.40 1664.38 1216.47 C 1599.45 1355.00 1534.31 1493.43 1468.90 1631.74 C 1001.93 1631.72 534.96 1631.74 67.99 1631.73 C 79.33 1601.88 90.32 1571.88 102.54 1542.38 C 103.51 1539.78 106.81 1540.39 108.99 1540.16 C 158.44 1539.68 208.08 1538.14 256.98 1530.20 C 275.26 1527.35 293.39 1523.45 311.03 1517.84 C 330.37 1511.82 349.28 1503.16 364.64 1489.72 C 376.26 1480.08 381.21 1465.15 384.84 1451.02 C 386.52 1443.20 389.78 1435.87 392.49 1428.38 C 445.76 1285.90 499.04 1143.42 552.32 1000.94 C 437.34 756.16 322.30 511.41 207.26 266.66 C 201.22 254.14 196.04 241.16 188.63 229.36 C 181.59 217.77 172.81 207.10 161.96 198.90 C 144.27 185.31 123.29 176.52 101.72 171.25 C 74.71 164.65 46.84 163.03 19.16 161.87 C 19.15 126.25 19.14 90.63 19.13 55.00 C 183.09 55.00 347.05 55.00 511.00 55.00 C 511.01 90.63 510.99 126.25 510.99 161.88 C 489.61 163.22 466.98 162.97 447.61 173.45 C 438.12 177.93 432.47 189.22 434.75 199.50 C 437.09 212.67 445.78 223.24 452.64 234.30 C 456.58 240.37 459.33 247.08 462.42 253.59 C 528.87 396.78 595.38 539.94 661.99 683.06 C 663.36 685.81 664.30 688.80 666.19 691.28 C 700.95 593.95 735.83 496.67 770.71 399.39 C 775.43 386.49 777.27 371.81 772.28 358.71 C 768.82 349.29 760.69 342.49 752.00 338.00 C 730.86 327.00 706.39 327.29 683.23 325.59 C 694.09 295.39 705.05 265.24 716.30 235.18 C 718.50 234.83 720.73 234.66 722.98 234.73 C 890.12 234.88 1057.27 234.76 1224.41 234.81 C 1213.02 265.03 1201.52 295.21 1190.16 325.44 C 1162.98 326.83 1135.60 327.57 1108.82 332.86 C 1088.52 336.97 1068.24 343.31 1050.88 354.88 C 1040.26 362.06 1030.77 371.33 1024.85 382.82 C 1018.37 395.04 1014.12 408.27 1009.25 421.17 C 942.18 603.87 874.76 786.45 808.40 969.40 C 806.73 974.55 804.32 979.49 803.09 984.75 C 841.03 1070.76 880.66 1156.02 919.46 1241.64 C 1059.50 910.90 1199.53 580.16 1339.68 249.47 C 1346.78 231.10 1359.68 215.52 1365.85 196.74 C 1368.66 187.80 1370.23 177.96 1367.39 168.82 C 1362.90 154.40 1350.54 143.54 1336.73 138.20 C 1304.37 124.66 1268.70 123.94 1234.17 122.67 C 1234.13 90.80 1234.17 58.94 1234.16 27.07 Z" />
</g>
</svg>
